<svg height="106" viewBox="0 0 599 106" width="599" xmlns="http://www.w3.org/2000/svg"><g fill="none"><path d="m532.581852 42.2871851c0 3.0642888-.21164 5.9242917-.423281 8.9885805-.84656 7.5585789-2.962963 9.3971522-10.79365 9.3971522h-58.835979v4.4942902c0 14.9128721 8.888889 20.8371637 30.26455 20.8371637 8.677249 0 17.777778-1.0214296 27.513228-3.2685747 6.772486-1.6342873 8.677248 0 8.677248 7.1500072v2.6557169c0 6.7414353-1.269841 8.1714369-8.677248 10.0100099-8.465609 2.247145-17.566138 3.268575-27.513228 3.268575-35.555555 0-52.063492-12.870013-52.063492-43.7171868v-17.7728749c0-29.6214582 15.661376-44.3300443 46.984127-44.3300443 29.417989 0 44.867725 14.5043002 44.867725 42.2871851zm-70.05291-3.8814324v5.107148h49.523809v-5.107148c0-13.4828706-8.253968-20.2243059-24.973545-20.2243059-16.296296 0-24.550264 6.7414353-24.550264 20.2243059zm104.550264-.0016117v58.0236477c0 7.5138533-1.904762 9.3923173-9.523809 9.3923173h-2.751323c-7.619048 0-9.523809-1.878464-9.523809-9.3923173v-59.4846748c0-24.6287426 13.333333-36.9431139 40-36.9431139 1.693121 0 3.174603 0 4.232804.20871816 6.984127.83487263 8.888889 2.50461789 8.888889 9.80975344v2.9220542c0 6.8876992-1.481482 8.3487263-8.888889 7.3051355-1.058201-.2087182-2.539683-.2087182-4.232804-.2087182-14.179895 0-18.201059 5.6353903-18.201059 18.3671979zm-155.328993-29.01687355c4.232804-7.46714456 7.195767-9.38726745 15.661375-9.38726745h2.751323c8.465609 0 9.31217 1.92012289 5.079365 9.17392046l-14.179894 24.10820964c-6.560846 11.0940433-8.465608 13.8675541-12.698413 16.214371-17.475018 4.6936337-22.433862 10.4540024-26.666666 17.921147l-16.296297 29.0151903c-4.232804 7.4671446-7.407407 9.3872676-15.873015 9.3872676h-2.962963c-8.465609 0-9.31217-1.920123-5.079365-9.1739206l18.201058-30.9353132c4.232804-6.6848723 6.70194-10.5251181 7.407407-11.5207374 6.94619-9.2926739 14.603175-11.825877 23.280423-14.2942481 3.74438-1.280082 5.079365-1.280082 8.888889-8.1071856z" fill="#2baf2b"/><path d="m0 96.2194914v-86.61887696c0-7.68049155 1.9047619-9.60061444 9.52380952-9.60061444h2.75132278c7.6190476 0 9.5238095 1.92012289 9.5238095 9.60061444v86.61887696c0 7.6804916-1.9047619 9.6006146-9.5238095 9.6006146h-2.75132278c-7.61904762 0-9.52380952-1.920123-9.52380952-9.6006146zm58.8359788-55.7281689v55.9364662c0 7.5138533-1.9047619 9.3923173-9.5238095 9.3923173h-2.7513227c-7.6190477 0-9.5238096-1.878464-9.5238096-9.3923173v-55.9364662c0-26.9246423 15.4497355-40.4913225 46.1375662-40.4913225 32.1693118 0 45.9259258 13.5666802 45.9259258 40.4913225v55.9364662c0 7.5138533-1.904762 9.3923173-9.523809 9.3923173h-2.751323c-7.619048 0-9.52381-1.878464-9.52381-9.3923173v-55.9364662c0-14.1928347-5.291005-20.4543794-24.1269838-20.4543794-18.8359789 0-24.3386244 6.2615447-24.3386244 20.4543794zm99.3752892-31.28957417 16.507937 67.96745927c1.904762 8.1560951 4.656085 10.0382709 10.58201 10.0382709 6.137567 0 8.465609-1.6730451 10.582011-10.0382709l16.507937-67.96745927c1.693121-7.31957253 4.021164-9.20174833 11.640211-9.20174833h3.174603c7.619048 0 9.10053 1.8821758 7.195768 9.20174833l-16.931217 69.01311247c-2.539683 10.2474016-5.925926 17.5669741-9.94709 21.5404563-4.021164 3.9734819-11.428572 6.0647889-22.222223 6.0647889-10.79365 0-18.201058-1.882176-22.222222-5.8556582s-7.407407-11.2930548-9.94709-21.749587l-16.931217-69.01311247c-1.904762-7.31957253-.42328-9.20174833 7.195768-9.20174833h3.174603c7.619047 0 9.94709 1.8821758 11.640211 9.20174833zm157.132647 52.49259907v-17.568589c0-17.1600171-5.925926-24.5143102-26.455026-24.5143102-20.529101 0-26.878307 7.3542931-26.878307 24.5143102v17.568589c0 16.9557313 5.925926 24.3100243 26.878307 24.3100243 20.5291 0 26.455026-7.1500071 26.455026-24.3100243zm-26.455026 44.1257586c-33.862434 0-48.677249-14.7085863-48.677249-44.1257586v-17.568589c0-28.6000286 15.873016-44.1257584 48.677249-44.1257584 33.650794 0 48.253968 14.7085861 48.253968 44.1257584v17.568589c0 28.3957427-15.873016 44.1257586-48.253968 44.1257586zm76.088837-96.43283855 12.486773 22.40143365c3.809523 6.8271036 5.144508 6.8271036 8.888888 8.1071856 8.677249 2.4683711 16.334234 5.0015742 23.280424 14.2942481.705467.9956193 3.174603 4.8358651 7.407407 11.5207374l18.201058 30.9353132c4.232805 7.2537976 3.386244 9.1739206-5.079365 9.1739206h-2.962963c-8.465608 0-11.640211-1.920123-15.873016-9.3872676l-16.296296-29.0151903c-4.232804-7.4671446-9.191648-13.2275133-26.666667-17.921147-4.232804-2.3468169-6.137566-5.1203277-12.698412-16.214371l-14.179894-24.10820964c-4.232805-7.25379757-3.386244-9.17392046 5.079365-9.17392046h2.751322c8.465609 0 11.428572 1.92012289 15.661376 9.38726745z" fill="#00334e"/></g></svg>