<svg height="395" viewBox="0 0 799 395" width="799" xmlns="http://www.w3.org/2000/svg"><path d="m27.7582285 393.523388c-27.7582285 0-27.7582285 0-27.7582285-23.866877v-109.57066c27.7582285 0 27.7582285 0 27.7582285 22.782019zm.0037789-152.558159c-27.7620074 0-27.7620074 0-27.7620074-23.866876v-4.098353c27.7620074 0 27.7620074 0 27.7620074 22.782018zm142.9752876 152.407484v-71.871844c0-37.698816-8.980603-63.192979-52.795062-63.192979-30.2074836 0-44.3587373 11.391009-48.9851088 20.612302 0-18.713801 0-18.713801-21.2268806-18.713801v109.841875c0 23.324447 0 23.324447 27.7582285 23.324447v-74.312774c0-37.698816 0-37.698816 34.8338549-37.698816 28.302508 0 32.65674 14.103154 32.65674 37.698816v50.988327c0 23.324447 0 23.324447 27.758228 23.324447zm147.272824-133.437603-47.080133 110.113156c-9.797022 23.595661-10.069161 23.324447-41.637343 23.324447l-54.155759-133.437603c30.751763.000067 30.751763.000067 39.188087 23.866943l31.023903 86.246213 32.11246-86.246213c8.980603-24.138091 10.61344-23.866876 40.548785-23.866943zm129.583756 66.718835c0 35.800314-14.151254 68.346055-66.402037 68.346055-52.795062 0-66.129897-32.816955-66.129897-68.346055 0-35.257886 13.879114-68.074841 66.402037-68.074841 51.978643 0 66.129897 32.816955 66.129897 68.074841zm-28.302508 0c0-24.68052-6.259208-45.292822-37.827389-45.292822-37.82739 0-37.82739 0-37.82739 45.292822 0 25.494163 6.803487 45.564037 37.55525 45.564037 38.099529 0 38.099529 0 38.099529-45.564037zm168.227565 66.718768c-33.201019 0-32.65674-.271215-45.719435-17.357728l-25.308973-33.359384-24.764694 33.359384c-12.790557 16.815299-14.423394 17.357728-46.263715 17.357728l54.972178-68.346055-51.434364-65.362696c30.207484 0 34.561716.542429 46.535854 17.628943l20.954741 29.562381 21.49902-29.562381c13.062695-17.628943 16.328369-17.357728 45.447295-17.357728l-50.345806 64.820266zm124.140966-77.838563c0 22.23959 0 22.23959-28.846786 22.23959h-69.667711c0 19.798658 12.246277 33.359384 37.010971 33.359384h29.391066c22.043299 0 22.043299 0 22.043299 22.510803h-50.345807c-52.795062 0-66.402037-31.732097-66.402037-67.261197s13.879115-68.07484 66.946316-68.07484c40.548785 0 59.870689 24.951734 59.870689 57.22626zm-28.846786 0s.272139 0 0-.271214c.272139 0 .272139-.271215 0-.271215.544279-18.171372-8.164185-35.257885-33.473158-35.257885-35.378135 0-36.194553 0-36.194553 35.800314zm115.432502-56.141402c0 24.409305 0 23.595662-17.689067 23.595662-23.676136 0-23.676136 6.509148-23.676136 36.613958v73.770345c-27.758229 0-27.758229 0-27.758229-23.053233v-110.384303c21.226881 0 21.226881 0 21.226881 18.442586 4.626371-9.221293 18.505486-20.341088 47.896551-18.985015zm-296.32081-158.598025 287.147836-100.52465796c.28136-.08029126.56272-.16058252.84408-.20072815 2.652821-.28101941 15.193432-.64233009 2.492044 19.35019381-14.148381 22.2808248-100.324888 177.4035403-100.324888 177.4035403s-11.937697 22.039951-32.557355 9.032767c-10.691675-6.744466-21.38335-13.488932-32.476967-19.470631l-37.742416-20.273543c-2.331267-1.244515-2.612627-4.536457-.522525-6.142282l172.393206-133.1229097-209.532708 115.6194147c-1.12544.602185-2.492045.602185-3.57729 0l-45.379326-25.452329c-.361749-.200728-.643109-.441602-.924468-.722622-1.607771-1.766407-6.752637-8.310145-1.366605-14.492572.401942-.481748.964662-.802913 1.527382-1.003641zm68.812583 111.203396-44.133304-19.591068c-2.090102-1.445242-2.090102-4.576601 0-6.06199l40.274655-37.616455c2.612627-1.806554 6.109528.281019 5.787974 3.412378l3.858649 57.207523c-.321554 2.810195-3.496901 4.255437-5.787974 2.649612z" fill="#fff" fill-rule="evenodd" transform=""/></svg>