<?xml version="1.0" encoding="UTF-8"?>
<svg width="600px" height="535px" viewBox="0 0 600 535" version="1.1" xmlns="http://www.w3.org/2000/svg" xmlns:xlink="http://www.w3.org/1999/xlink">
    <title>Group</title>
    <g id="Logo" stroke="none" stroke-width="1" fill="none" fill-rule="evenodd">
        <g id="Symbol" transform="translate(-200.000000, -233.000000)" fill-rule="nonzero">
            <g id="Group" transform="translate(200.000000, 233.000000)">
                <path d="M294.675815,0.0466436821 L299.630763,0.0135566592 C366.11603,-0.580115615 431.315811,18.3366378 487.159155,54.4221492 C451.115291,77.7230317 421.384608,109.565831 400.608368,147.121643 C399.997256,147.982682 399.482419,148.908145 399.073088,149.881435 L398.847076,150.333038 C398.570043,150.869394 398.309876,151.412076 398.03706,151.950541 C393.698698,159.964297 385.317557,165.420218 375.536629,170.027518 L373.981025,170.748183 C373.719948,170.867202 373.457997,170.985695 373.195221,171.103694 L371.609054,171.806006 L371.609054,171.806006 L370.005402,172.497952 L370.005402,172.497952 L368.386577,173.181026 L368.386577,173.181026 L365.934947,174.192273 L365.934947,174.192273 L363.462182,175.191971 L363.462182,175.191971 L356.918426,177.802007 L354.77251,178.665201 L352.211557,179.712267 L352.211557,179.712267 L350.939401,180.242034 L350.939401,180.242034 L349.044621,181.046451 L349.044621,181.046451 L347.169244,181.864695 L347.169244,181.864695 L345.931581,182.419042 L345.931581,182.419042 L344.705255,182.981289 L344.705255,182.981289 L343.491352,183.55214 L343.491352,183.55214 L342.290959,184.132294 C342.092079,184.229801 341.893808,184.327725 341.696167,184.42608 L340.518072,185.021508 L340.518072,185.021508 L339.3562,185.627996 L339.3562,185.627996 L338.211637,186.246246 C338.022379,186.350307 337.833888,186.454887 337.646185,186.560001 L336.529621,187.197211 C336.345165,187.304519 336.161544,187.412391 335.978779,187.52084 L334.892656,188.178589 C334.354917,188.511047 333.825298,188.84897 333.304408,189.192751 L332.27445,189.888242 C324.300457,195.399283 318.569126,202.412971 317.428786,212.447964 C315.54439,229.025375 325.919602,239.518962 339.022083,250.007465 L340.784406,251.406435 L340.784406,251.406435 L342.57403,252.808547 L342.57403,252.808547 L348.980226,257.786909 L348.980226,257.786909 L350.830572,259.242784 C351.139077,259.48707 351.447568,259.732221 351.755942,259.978303 L353.603934,261.466507 C365.595825,271.219418 377.090475,282.591908 381.882684,299.541012 C385.368303,312.686305 390.096351,325.47026 396.002952,337.720172 L396.260625,338.167054 L396.260625,338.167054 L396.575031,338.677308 L396.575031,338.677308 L396.948424,339.243381 L396.948424,339.243381 L397.383057,339.857721 L397.383057,339.857721 L397.707947,340.290366 L397.707947,340.290366 L398.061725,340.738867 L398.061725,340.738867 L398.445057,341.200988 L398.445057,341.200988 L398.858612,341.67449 L398.858612,341.67449 L399.303057,342.157135 C399.379742,342.238214 399.457743,342.31958 399.537072,342.401187 L400.029104,342.893352 L400.029104,342.893352 L400.553696,343.389064 C400.643878,343.471855 400.735445,343.554699 400.82841,343.637552 L401.403092,344.134392 C405.74212,347.773115 412.842258,351.246783 423.888446,350.583881 C430.630038,350.179385 436.763695,347.186435 442.415629,343.898118 L443.711428,343.135076 L443.711428,343.135076 L448.73049,340.103293 L448.73049,340.103293 L449.945946,339.381755 C450.14726,339.263583 450.347947,339.146538 450.548015,339.030753 L451.741048,338.352196 C456.879157,335.486303 461.608358,333.647979 466.054863,335.130311 C479.295118,339.54387 474.241895,388.954055 447.192138,407.636308 C459.552626,419.438486 472.951653,430.102641 487.226621,439.499361 C431.369634,475.614932 366.143799,494.548419 299.630763,493.953915 C272.653884,493.963925 245.761417,490.940575 219.460176,484.940843 L219.267476,484.9653 L219.267476,484.9653 C215.653847,484.593291 208.715795,488.185594 199.889371,493.584469 L197.644255,494.970576 L197.644255,494.970576 L195.325443,496.424465 L195.325443,496.424465 L192.937922,497.938643 L192.937922,497.938643 L189.238717,500.306564 L189.238717,500.306564 L181.47749,505.297643 L181.47749,505.297643 L177.449126,507.87023 L177.449126,507.87023 L174.720254,509.596654 C174.262902,509.884629 173.804349,510.172619 173.344699,510.460467 L170.574469,512.18461 C170.110847,512.471268 169.646336,512.757473 169.181039,513.043068 L166.380669,514.748072 C142.979573,528.874665 118.134698,540.696653 104.831194,530.703212 C96.7732674,524.650914 99.8902327,512.858311 105.201178,499.404645 L106.056671,497.267173 L106.056671,497.267173 L106.940774,495.105661 L106.940774,495.105661 L110.147003,487.40258 L110.147003,487.40258 L111.062625,485.17705 L111.062625,485.17705 L111.963647,482.947107 C118.795439,465.84308 123.647339,448.66456 110.588344,438.647613 L109.623407,437.937095 C42.701087,392.643195 2.84217094e-14,323.927959 2.84217094e-14,246.98226 C2.84217094e-14,111.950091 131.479515,2.22759048 294.675815,0.0466436821 L294.675815,0.0466436821 Z" id="Path" fill="#5D4BFF"></path>
                <path d="M487.15789,54.4221492 L489.200337,55.7873982 C556.356766,101.078651 599.261947,169.884311 599.261947,246.983946 C599.261947,324.057701 556.386521,392.84409 489.26792,438.134143 L487.226621,439.499361 L485.285479,438.210146 C471.735705,429.130821 458.990786,418.902024 447.192138,407.636308 C474.241895,388.954055 479.295118,339.54387 466.054863,335.130311 C462.053008,333.796212 457.82217,335.151845 453.27034,337.525548 L452.763255,337.793398 L451.741048,338.352196 L450.548015,339.030753 L449.945946,339.381755 L448.73049,340.103293 L443.711428,343.135076 L442.415629,343.898118 L441.049851,344.680469 C435.778419,347.648741 430.090711,350.211745 423.888446,350.583881 C413.093308,351.231717 406.066892,347.928872 401.703228,344.382184 L401.403092,344.134392 L400.82841,343.637552 L400.553696,343.389064 L400.029104,342.893352 L399.537072,342.401187 L399.303057,342.157135 L398.858612,341.67449 L398.445057,341.200988 L398.061725,340.738867 L397.707947,340.290366 L397.383057,339.857721 L396.948424,339.243381 L396.575031,338.677308 L396.260625,338.167054 L396.002952,337.720172 C390.096351,325.47026 385.368303,312.686305 381.882684,299.541012 C378.426315,287.316512 371.483349,277.992956 363.381925,270.085697 L362.72256,269.447642 L361.456767,268.251809 L360.817962,267.661681 L359.529715,266.496247 L358.228864,265.34957 L356.9173,264.220446 L355.596915,263.107667 L354.269599,262.010026 L353.603934,261.466507 L351.755942,259.978303 L350.830572,259.242784 L348.980226,257.786909 L342.57403,252.808547 L340.784406,251.406435 L339.022083,250.007465 L337.329314,248.638871 L336.220308,247.724962 L335.128531,246.808808 L334.055378,245.889519 L333.00224,244.966208 L331.970511,244.037986 L330.961583,243.103965 L330.240528,242.418212 L330.240528,242.418212 L329.532899,241.728554 C321.357634,233.658408 316.033757,224.720313 317.428786,212.447964 C318.543209,202.641039 324.042313,195.719647 331.734271,190.266341 L332.27445,189.888242 L333.304408,189.192751 L334.092214,188.681424 L334.892656,188.178589 L335.978779,187.52084 L336.529621,187.197211 L337.646185,186.560001 L338.211637,186.246246 L339.3562,185.627996 L340.518072,185.021508 L341.696167,184.42608 L343.491352,183.55214 L344.705255,182.981289 L345.931581,182.419042 L347.169244,181.864695 L349.044621,181.046451 L350.939401,180.242034 L352.211557,179.712267 L354.77251,178.665201 L356.918426,177.802007 L363.462182,175.191971 L365.934947,174.192273 L368.386577,173.181026 L370.005402,172.497952 L371.609054,171.806006 L373.195221,171.103694 L373.981025,170.748183 L375.536629,170.027518 L376.637782,169.50222 L376.637782,169.50222 L377.726123,168.96912 C386.559607,164.582113 394.026121,159.359485 398.03706,151.950541 L398.440487,151.140999 L399.073088,149.881435 C399.482419,148.908145 399.997256,147.982682 400.608368,147.121643 C421.111236,110.059986 450.333223,78.5619892 485.738391,55.3463511 L487.15789,54.4221492 Z M283.52783,343.257888 C284.869565,354.343017 275.666323,364.571746 262.972545,366.108712 C250.278767,367.645256 238.900581,359.906032 237.558846,348.820481 C236.21711,337.73493 245.419931,327.506201 258.11413,325.969657 C270.80833,324.433113 282.186094,332.172758 283.52783,343.257888 Z M177.922461,130.090627 C195.97156,130.088231 213.587187,171.614256 226.400342,211.762176 L227.329256,214.696746 C227.635995,215.673702 227.939813,216.649215 228.240648,217.622663 L229.134138,220.53619 C229.428942,221.504886 229.720698,222.470894 230.009345,223.433593 L230.865889,226.311135 C231.148251,227.266591 231.427439,228.218114 231.70339,229.165082 L232.521468,231.991699 C232.656174,232.460316 232.790056,232.92764 232.923104,233.393591 L233.711333,236.172208 C233.841017,236.632359 233.969852,237.090982 234.097831,237.547999 L235.290513,241.849509 L235.866948,243.959186 L235.866948,243.959186 L236.979059,248.087046 L238.035553,252.080467 L239.03491,255.92451 L239.975609,259.604238 L240.85613,263.104712 L241.674949,266.410993 L242.784163,270.973626 L243.442078,273.729071 L244.302803,277.395427 L245.206979,281.334094 L246.379038,286.597328 L246.474566,287.046671 L246.474566,287.046671 L246.652081,287.937325 L246.733961,288.378466 L246.733961,288.378466 L246.883702,289.251955 L247.014393,290.113155 L247.125607,290.961392 L247.216919,291.795987 L247.2879,292.616266 L247.30933,292.922188 L247.30933,292.922188 L247.343217,293.527472 C247.34786,293.627612 247.351999,293.727377 247.355628,293.826761 L247.371269,294.41845 C247.377586,294.809799 247.374878,295.194863 247.365188,295.573253 L247.343097,296.135785 C247.271764,297.529359 247.07907,298.826354 246.752082,300.006286 L246.614095,300.471966 C245.040972,305.44815 240.913759,308.174836 233.180285,306.985071 C232.178516,306.830953 230.929555,306.223951 229.470727,305.220146 L228.947194,304.849477 L228.947194,304.849477 L228.406596,304.446404 L228.406596,304.446404 L227.8493,304.011474 C227.566538,303.786136 227.27765,303.549057 226.982843,303.300546 L226.385394,302.788372 C226.284524,302.700499 226.183012,302.611379 226.080864,302.521023 L225.460419,301.964145 L225.460419,301.964145 L224.825098,301.378151 C224.717991,301.278089 224.610281,301.176837 224.501973,301.074406 L223.845022,300.445763 C223.734357,300.338662 223.623109,300.230404 223.511288,300.121002 L222.833528,299.450944 L222.833528,299.450944 L222.142352,298.75396 C222.026058,298.635583 221.90922,298.516106 221.791846,298.395542 L221.081228,297.659198 L221.081228,297.659198 L220.358105,296.897298 L220.358105,296.897298 L219.622842,296.11039 L219.622842,296.11039 L218.875803,295.299022 L218.875803,295.299022 L217.733962,294.037307 L217.733962,294.037307 L216.959079,293.167187 L216.959079,293.167187 L216.173697,292.274524 L216.173697,292.274524 L214.976734,290.894463 L214.976734,290.894463 L214.166699,289.947843 L214.166699,289.947843 L213.34744,288.980598 L213.34744,288.980598 L212.519323,287.993276 L212.519323,287.993276 L211.682713,286.986426 L211.682713,286.986426 L210.837973,285.960596 L210.837973,285.960596 L209.55642,284.387459 L209.55642,284.387459 L208.692954,283.316574 L208.692954,283.316574 L207.822635,282.228626 L207.822635,282.228626 L206.945828,281.124162 L206.945828,281.124162 L206.062898,280.003732 L206.062898,280.003732 L204.72782,278.294346 L204.72782,278.294346 L202.929688,275.964394 L202.929688,275.964394 L201.569164,274.181248 L201.569164,274.181248 L200.199786,272.369573 L200.199786,272.369573 L198.822784,270.531218 L198.822784,270.531218 L197.43939,268.668032 L197.43939,268.668032 L195.284835,265.734607 C192.405863,261.789609 189.506036,257.715677 186.634281,253.586321 L184.486493,250.480061 L182.353818,247.359907 L180.240844,244.232752 L178.152157,241.105487 C175.731307,237.459627 173.369408,233.827612 171.099236,230.258686 L169.176603,227.216206 L167.303485,224.211518 L165.843723,221.83961 C165.122889,220.661393 164.415921,219.495223 163.724139,218.343086 L162.027084,215.493123 L161.255756,214.181135 L161.255756,214.181135 L160.499767,212.884174 L160.499767,212.884174 L159.395573,210.968454 L159.395573,210.968454 L158.67999,209.712152 L158.67999,209.712152 L157.63861,207.860734 L157.63861,207.860734 L156.966373,206.64951 L156.966373,206.64951 L156.312298,205.457552 L156.312298,205.457552 L155.676854,204.285569 L155.676854,204.285569 L155.060514,203.134268 L155.060514,203.134268 L154.463746,202.004354 L154.463746,202.004354 L153.606322,200.351131 L153.606322,200.351131 L153.060544,199.277779 L153.060544,199.277779 L152.535986,198.228289 L152.535986,198.228289 L151.789964,196.700339 L151.789964,196.700339 L151.320512,195.713595 L151.320512,195.713595 L150.873926,194.753186 L150.873926,194.753186 L150.450676,193.819819 C150.382105,193.666551 150.314527,193.514439 150.247949,193.363497 L149.860586,192.472019 L149.860586,192.472019 L149.497735,191.609349 C149.380922,191.326673 149.268273,191.048916 149.159867,190.776196 L148.847451,189.973264 L148.847451,189.973264 C136.889477,158.529346 149.440733,130.096952 177.922461,130.090627 Z" id="Shape" fill="#FFFFFF"></path>
                <path d="M459.390169,161.096621 C469.340538,142.028236 486.207806,131.162791 497.064268,136.827969 C505.025673,140.982433 507.54373,152.873011 504.396418,166.43923 L504.094686,167.67697 C502.931062,172.231039 501.137206,176.950885 498.704894,181.612045 C497.930976,183.095142 497.115216,184.528616 496.263695,185.908549 L495.525204,187.078145 C485.441179,202.688212 470.80161,210.979357 461.030795,205.880697 C450.174334,200.215519 449.4398,180.165005 459.390169,161.096621 Z" id="Path" fill="#5D4BFF"></path>
            </g>
        </g>
    </g>
</svg>