<svg height="640" viewBox="0 0 800 640" width="800" xmlns="http://www.w3.org/2000/svg"><g fill="none" fill-rule="evenodd"><path d="m27.8192356 638.523388c-27.8192356 0-27.8192356 0-27.8192356-23.866877v-109.57066c27.8192356 0 27.8192356 0 27.8192356 22.782019zm.0037872-152.558159c-27.8230228 0-27.8230228 0-27.8230228-23.866876v-4.098353c27.8230228 0 27.8230228 0 27.8230228 22.782018zm143.2895192 152.407484v-71.871844c0-37.698816-9.000341-63.192979-52.911095-63.192979-30.273874 0-44.4562294 11.391009-49.0927686 20.612302 0-18.713801 0-18.713801-21.2735331-18.713801v109.841875c0 23.324447 0 23.324447 27.8192355 23.324447v-74.312774c0-37.698816 0-37.698816 34.9104132-37.698816 28.364711 0 32.728513 14.103154 32.728513 37.698816v50.988327c0 23.324447 0 23.324447 27.819235 23.324447zm147.5965-133.437603-47.183605 110.113156c-9.818554 23.595661-10.091292 23.324447-41.728854 23.324447l-54.274783-133.437603c30.819349.000067 30.819349.000067 39.274215 23.866943l31.092087 86.246213 32.183037-86.246213c9.000341-24.138091 10.636767-23.866876 40.637903-23.866943zm129.868556 66.718835c0 35.800314-14.182356 68.346055-66.547976 68.346055-52.911095 0-66.275237-32.816955-66.275237-68.346055 0-35.257886 13.909617-68.074841 66.547975-68.074841 52.092882 0 66.275238 32.816955 66.275238 68.074841zm-28.364711 0c0-24.68052-6.272965-45.292822-37.910527-45.292822-37.910527 0-37.910527 0-37.910527 45.292822 0 25.494163 6.81844 45.564037 37.637789 45.564037 38.183265 0 38.183265 0 38.183265-45.564037zm168.597295 66.718768c-33.273987 0-32.728512-.271215-45.819917-17.357728l-25.364597-33.359384-24.819122 33.359384c-12.818668 16.815299-14.455093 17.357728-46.365393 17.357728l55.092996-68.346055-51.547407-65.362696c30.273874 0 34.637676.542429 46.63813 17.628943l21.000796 29.562381 21.54627-29.562381c13.091405-17.628943 16.364257-17.357728 45.54718-17.357728l-50.456457 64.820266zm124.413804-77.838563c0 22.23959 0 22.23959-28.910186 22.23959h-69.820827c0 19.798658 12.273192 33.359384 37.092314 33.359384h29.455662c22.091745 0 22.091745 0 22.091745 22.510803h-50.456456c-52.911095 0-66.547976-31.732097-66.547976-67.261197s13.909618-68.07484 67.093451-68.07484c40.637903 0 60.002273 24.951734 60.002273 57.22626zm-28.910186 0s.272737 0 0-.271214c.272737 0 .272737-.271215 0-.271215.545475-18.171372-8.182128-35.257885-33.546725-35.257885-35.455889 0-36.274102 0-36.274102 35.800314zm115.6862-56.141402c-29.455661-1.356073-43.365279 9.763722-48.001818 18.985015 0-18.442586 0-18.442586-21.273533-18.442586v110.384303c0 23.053233 0 23.053233 27.819235 23.053233v-73.770345c0-30.10481 0-36.613958 23.728172-36.613958 17.727944 0 17.727944.813643 17.727944-23.595662z" fill="#005696"/><g fill-rule="nonzero" transform="translate(100)"><path d="m7.84960737 201.589446 574.29567263-201.04931592c.56272-.16058252 1.12544-.32116504 1.688159-.4014563 5.305643-.56203883 30.386865-1.28466017 4.984089 38.70038752-28.296763 44.5616496-200.649776 354.8070807-200.649776 354.8070807s-23.875394 44.079902-65.114711 18.065533c-21.383349-13.488932-42.766699-26.977863-64.953933-38.941261l-75.484832-40.547087c-4.662535-2.489029-5.225255-9.072912-1.045051-12.284563l344.786414-266.2458195-419.065418 231.2388305c-2.250878 1.204369-4.984089 1.204369-7.154579 0l-90.75865252-50.904659c-.72349679-.401457-1.28621652-.883204-1.84893624-1.445243-3.21554128-3.532815-13.50527338-16.620291-2.73321009-28.985145.80388532-.963495 1.92932477-1.605825 3.05476422-2.007282z" fill="#007fdb"/><path d="m145.474774 423.996238-88.266608-39.182135c-4.1802036-2.890485-4.1802036-9.153204 0-12.12398l80.549309-75.232912c5.225255-3.613106 12.219057.562039 11.575949 6.824758l7.717299 114.415046c-.643108 5.620388-6.993802 8.510873-11.575949 5.299223z" fill="#005696"/></g></g></svg>